<svg width="32" height="32" viewBox="0 0 32 32" fill="none" xmlns="http://www.w3.org/2000/svg">
<g id="customer-support 2">
<path id="Vector" d="M22.6667 14.406C22.6667 13.9451 22.6667 13.7147 22.7361 13.5093C22.9377 12.9126 23.4691 12.681 24.0015 12.4385C24.6001 12.1659 24.8993 12.0296 25.1958 12.0056C25.5325 11.9784 25.8697 12.0509 26.1574 12.2124C26.5389 12.4265 26.8049 12.8332 27.0773 13.164C28.3351 14.6917 28.9639 15.4557 29.1941 16.2981C29.3798 16.9779 29.3798 17.6888 29.1941 18.3685C28.8585 19.5972 27.7981 20.6272 27.0131 21.5805C26.6117 22.0681 26.4109 22.312 26.1574 22.4543C25.8697 22.6157 25.5325 22.6883 25.1958 22.6611C24.8993 22.6371 24.6001 22.5008 24.0015 22.2281C23.4691 21.9856 22.9377 21.7541 22.7361 21.1573C22.6667 20.952 22.6667 20.7216 22.6667 20.2607V14.406Z" fill="#0D3D4B" stroke="#0D3D4B" stroke-width="1.5"/>
<path id="Vector_2" d="M9.33341 14.4061C9.33341 13.8259 9.31712 13.3043 8.84796 12.8963C8.67732 12.7479 8.45108 12.6448 7.99863 12.4387C7.40009 12.1661 7.10083 12.0298 6.80429 12.0058C5.91463 11.9339 5.43597 12.5411 4.92292 13.1642C3.66508 14.692 3.03616 15.4559 2.80603 16.2983C2.62032 16.9781 2.62032 17.6891 2.80603 18.3688C3.14168 19.5975 4.20211 20.6273 4.98703 21.5808C5.4818 22.1817 5.95444 22.73 6.80429 22.6613C7.10083 22.6373 7.40009 22.5009 7.99863 22.2284C8.45108 22.0223 8.67732 21.9192 8.84796 21.7708C9.31712 21.3628 9.33341 20.8413 9.33341 20.2609V14.4061Z" fill="#0D3D4B" stroke="#0D3D4B" stroke-width="1.5"/>
<path id="Vector_3" d="M6.66675 12C6.66675 7.58172 10.8454 4 16.0001 4C21.1547 4 25.3334 7.58172 25.3334 12" stroke="#0D3D4B" stroke-width="1.5" stroke-linecap="square" stroke-linejoin="round"/>
<path id="Vector_4" d="M25.3333 22.6665V23.7332C25.3333 26.0896 22.9454 27.9998 19.9999 27.9998H17.3333" stroke="#0D3D4B" stroke-width="1.5" stroke-linecap="round" stroke-linejoin="round"/>
</g>
</svg>
